<svg width="183" height="40" viewBox="0 0 183 40" fill="none" xmlns="http://www.w3.org/2000/svg">
<path d="M0 29.0005V8.98047H6.664L9.1 17.7445L10.248 22.3085H10.304C10.8267 20.1058 11.2 18.5845 11.424 17.7445L13.888 8.98047H20.608V29.0005H16.072V18.9205L16.156 14.9165H16.1C15.6333 16.9138 15.3253 18.1551 15.176 18.6405L12.292 29.0005H8.204L5.348 18.6685L4.424 14.9165H4.368C4.424 17.0631 4.452 18.4071 4.452 18.9485V29.0005H0Z" fill="#DD4A42"/>
<path d="M27.2996 29.3645C25.8249 29.3645 24.6396 28.9818 23.7436 28.2165C22.8476 27.4511 22.3996 26.3778 22.3996 24.9965C22.3996 23.5405 22.8849 22.4858 23.8556 21.8325C24.8262 21.1605 26.1702 20.7125 27.8876 20.4885C29.2876 20.3205 30.2396 20.1338 30.7436 19.9285C31.2662 19.7045 31.5276 19.3591 31.5276 18.8925C31.5276 17.8658 30.8742 17.3525 29.5676 17.3525C28.1676 17.3525 27.3929 17.9685 27.2436 19.2005H23.0436C23.0996 17.7818 23.6782 16.6058 24.7796 15.6725C25.8996 14.7391 27.4862 14.2725 29.5396 14.2725C31.5929 14.2725 33.1422 14.6645 34.1876 15.4485C35.4009 16.3258 36.0076 17.6885 36.0076 19.5365V26.7605C36.0076 27.8991 36.1756 28.5805 36.5116 28.8045V29.0005H32.0876C31.9009 28.7391 31.7422 28.2071 31.6116 27.4045H31.5556C30.6409 28.7111 29.2222 29.3645 27.2996 29.3645ZM28.7556 26.4525C29.6142 26.4525 30.3049 26.2191 30.8276 25.7525C31.3689 25.2671 31.6396 24.6418 31.6396 23.8765V22.1685C31.1916 22.3925 30.4076 22.6445 29.2876 22.9245C28.3729 23.1298 27.7289 23.3725 27.3556 23.6525C26.9822 23.9325 26.7956 24.3338 26.7956 24.8565C26.7956 25.9205 27.4489 26.4525 28.7556 26.4525Z" fill="#DD4A42"/>
<path d="M38.22 29.0005V14.6645H42.588V16.9045H42.672C43.6427 15.2618 44.9493 14.4405 46.592 14.4405C47.0213 14.4405 47.32 14.4778 47.488 14.5525V18.4725H47.376C45.9573 18.2671 44.8373 18.5191 44.016 19.2285C43.1947 19.9191 42.784 21.0298 42.784 22.5605V29.0005H38.22Z" fill="#DD4A42"/>
<path d="M48.9387 29.0005V8.98047H53.4467V19.5085L57.7027 14.6645H62.9668L57.9268 20.0405L63.5547 29.0005H58.2627L54.8187 23.1485L53.4467 24.6045V29.0005H48.9387Z" fill="#DD4A42"/>
<path d="M68.4999 29.0005L63.5439 14.6645H68.2479L70.2079 21.1325L70.9919 24.0165H71.0479C71.2906 23.0458 71.5519 22.0845 71.8319 21.1325L73.8199 14.6645H78.3839L73.4279 29.0005H68.4999Z" fill="white"/>
<path d="M85.8567 29.4205C83.542 29.4205 81.6847 28.7111 80.2847 27.2925C78.9033 25.8551 78.2127 24.0258 78.2127 21.8045C78.2127 19.6391 78.894 17.8378 80.2567 16.4005C81.638 14.9631 83.4113 14.2445 85.5767 14.2445C87.5367 14.2445 89.17 14.8418 90.4767 16.0365C92.194 17.6045 93.034 19.9285 92.9967 23.0085H82.6927C82.842 23.9978 83.1873 24.7725 83.7287 25.3325C84.27 25.8738 84.998 26.1445 85.9127 26.1445C87.0887 26.1445 87.882 25.6685 88.2927 24.7165H92.7447C92.4087 26.0978 91.606 27.2271 90.3367 28.1045C89.086 28.9818 87.5927 29.4205 85.8567 29.4205ZM82.7207 20.2925H88.3767C88.302 19.4338 88.0127 18.7525 87.5087 18.2485C87.0233 17.7445 86.4073 17.4925 85.6607 17.4925C84.0367 17.4925 83.0567 18.4258 82.7207 20.2925Z" fill="white"/>
<path d="M94.5526 29.0005V8.98047H99.1726V29.0005H94.5526Z" fill="white"/>
<path d="M101.388 29.0005V14.6645H105.756V16.7085H105.84C106.829 15.0658 108.276 14.2445 110.18 14.2445C112.065 14.2445 113.409 15.0845 114.212 16.7645H114.268C115.351 15.0845 116.853 14.2445 118.776 14.2445C120.363 14.2445 121.567 14.7391 122.388 15.7285C123.228 16.6991 123.648 18.0151 123.648 19.6765V29.0005H119.084V20.4885C119.084 18.8645 118.412 18.0525 117.068 18.0525C116.359 18.0525 115.799 18.3231 115.388 18.8645C114.996 19.3871 114.8 20.0871 114.8 20.9645V29.0005H110.236V20.4885C110.236 18.8645 109.564 18.0525 108.22 18.0525C107.511 18.0525 106.951 18.3231 106.54 18.8645C106.148 19.3871 105.952 20.0871 105.952 20.9645V29.0005H101.388Z" fill="white"/>
<path d="M125.724 29.0005V14.6645H130.288V29.0005H125.724ZM125.724 12.6765V8.98047H130.288V12.6765H125.724Z" fill="white"/>
<path d="M138.582 29.4485C136.491 29.4485 134.82 29.0005 133.57 28.1045C132.338 27.1898 131.684 25.9391 131.61 24.3525H135.922C136.09 25.7711 136.967 26.4805 138.554 26.4805C139.244 26.4805 139.786 26.3591 140.178 26.1165C140.588 25.8551 140.794 25.5005 140.794 25.0525C140.794 24.9031 140.775 24.7725 140.738 24.6605C140.7 24.5485 140.635 24.4458 140.542 24.3525C140.448 24.2591 140.355 24.1751 140.262 24.1005C140.187 24.0258 140.066 23.9605 139.898 23.9045C139.73 23.8298 139.58 23.7738 139.45 23.7365C139.338 23.6991 139.16 23.6618 138.918 23.6245C138.694 23.5685 138.516 23.5311 138.386 23.5125C138.255 23.4751 138.05 23.4378 137.77 23.4005C137.49 23.3445 137.284 23.3071 137.154 23.2885C136.556 23.1951 136.052 23.1018 135.642 23.0085C135.231 22.8965 134.774 22.7285 134.27 22.5045C133.784 22.2805 133.383 22.0285 133.066 21.7485C132.767 21.4498 132.515 21.0578 132.31 20.5725C132.104 20.0685 132.002 19.4898 132.002 18.8365C132.002 17.3805 132.59 16.2511 133.766 15.4485C134.942 14.6458 136.416 14.2445 138.19 14.2445C140.187 14.2445 141.736 14.6551 142.838 15.4765C143.939 16.2791 144.546 17.3991 144.658 18.8365H140.458C140.308 17.7165 139.543 17.1565 138.162 17.1565C137.564 17.1565 137.079 17.2685 136.706 17.4925C136.351 17.7165 136.174 18.0431 136.174 18.4725C136.174 18.5845 136.192 18.6871 136.23 18.7805C136.267 18.8738 136.323 18.9578 136.398 19.0325C136.491 19.1071 136.575 19.1725 136.65 19.2285C136.743 19.2845 136.864 19.3405 137.014 19.3965C137.163 19.4525 137.294 19.4991 137.406 19.5365C137.536 19.5738 137.704 19.6111 137.91 19.6485C138.134 19.6858 138.311 19.7231 138.442 19.7605C138.591 19.7791 138.787 19.8165 139.03 19.8725C139.272 19.9098 139.468 19.9378 139.618 19.9565C140.252 20.0685 140.775 20.1711 141.186 20.2645C141.596 20.3578 142.072 20.5258 142.614 20.7685C143.174 20.9925 143.612 21.2631 143.93 21.5805C144.247 21.8791 144.518 22.2991 144.742 22.8405C144.984 23.3631 145.106 23.9791 145.106 24.6885C145.106 26.2191 144.499 27.3951 143.286 28.2165C142.091 29.0378 140.523 29.4485 138.582 29.4485Z" fill="white"/>
<path d="M146.587 29.0005V8.98047H151.095V19.5085L155.351 14.6645H160.615L155.575 20.0405L161.203 29.0005H155.911L152.467 23.1485L151.095 24.6045V29.0005H146.587Z" fill="white"/>
<path d="M162.255 29.0005V14.6645H166.819V29.0005H162.255ZM162.255 12.6765V8.98047H166.819V12.6765H162.255Z" fill="white"/>
<path d="M169.009 29.0005V14.6645H173.405V16.6245H173.489C174.59 15.0378 176.065 14.2445 177.913 14.2445C179.462 14.2445 180.676 14.7485 181.553 15.7565C182.449 16.7458 182.897 18.0525 182.897 19.6765V29.0005H178.333V20.6005C178.333 19.8165 178.137 19.2005 177.745 18.7525C177.372 18.2858 176.821 18.0525 176.093 18.0525C175.346 18.0525 174.74 18.3325 174.273 18.8925C173.806 19.4525 173.573 20.1805 173.573 21.0765V29.0005H169.009Z" fill="white"/>
</svg>
